# xmcd
#
# Track frame offsets: 
#        150
#        20062
#        38925
#        60462
#        78250
#        99907
#        119952
#        136235
#        154465
#        172060
#        187087
#        204122
#        222657
#
# Disc length: 3219 seconds
#
# Revision: 2
# Processed by: cddbd v1.4PL0 Copyright (c) Steve Scherf et al.
# Submitted via: ExactAudioCopy v0.95a3
#
DISCID=c00c910d
DTITLE=M Clan - Usar y Tirar
DYEAR=1999
DGENRE=Blues
TTITLE0=Chilaba y cachimba
TTITLE1=Llamando a la tierra
TTITLE2=Quédate a dormir
TTITLE3=No quiero verte
TTITLE4=La calma
TTITLE5=No tan bueno
TTITLE6=Eres funky
TTITLE7=Usar y tirar
TTITLE8=Mujer norteña
TTITLE9=Setenta y nueve
TTITLE10=Despierta
TTITLE11=39 grados
TTITLE12=Llamando a la tierra (Versión Inlges)
EXTD=
EXTT0=
EXTT1=
EXTT2=
EXTT3=
EXTT4=
EXTT5=
EXTT6=
EXTT7=
EXTT8=
EXTT9=
EXTT10=
EXTT11=
EXTT12=
PLAYORDER=
